<?xml version="1.0" standalone="no"?>
<!DOCTYPE svg PUBLIC "-//W3C//DTD SVG 20010904//EN"
 "http://www.w3.org/TR/2001/REC-SVG-20010904/DTD/svg10.dtd">
<svg version="1.0" xmlns="http://www.w3.org/2000/svg"
 width="400.000000pt" height="400.000000pt" viewBox="0 0 400.000000 400.000000"
 preserveAspectRatio="xMidYMid meet">
<metadata>
Created by potrace 1.14, written by Peter Selinger 2001-2017
</metadata>
<g transform="translate(0.000000,400.000000) scale(0.100000,-0.100000)"
fill="#000000" stroke="none">
<path d="M0 2000 l0 -2000 658 0 657 0 -3 54 c-4 60 14 107 57 143 34 30 50
30 24 0 -31 -34 -40 -56 -35 -83 7 -36 56 -84 85 -84 14 0 27 -7 31 -15 4 -12
23 -15 81 -15 l75 0 -16 25 c-15 23 -15 25 2 32 10 3 36 7 58 7 31 1 41 -3 44
-17 2 -12 -4 -20 -17 -24 -42 -11 -20 -23 41 -23 49 0 66 4 84 21 21 19 23 19
60 4 23 -9 41 -12 47 -6 14 14 -3 33 -25 27 -12 -2 -32 4 -47 14 -25 19 -182
53 -231 51 -19 -1 -22 1 -12 11 7 7 40 14 73 15 63 2 124 -15 216 -59 l52 -26
68 33 c99 48 224 70 262 46 15 -10 10 -11 -109 -31 -75 -14 -118 -28 -141 -47
-9 -7 -23 -11 -31 -8 -16 6 -44 -20 -30 -29 4 -3 26 1 47 8 38 13 75 5 75 -16
0 -5 33 -8 73 -8 l72 0 -25 20 c-31 24 -23 32 40 38 55 5 64 -6 33 -40 -15
-17 -13 -18 59 -18 58 0 77 3 82 15 3 8 16 15 29 15 34 0 74 34 87 75 13 40 4
62 -36 94 -33 26 -19 27 22 2 42 -25 68 -84 67 -149 l-1 -52 699 0 699 0 0
2000 0 2000 -662 0 c-364 0 -658 -4 -652 -8 5 -5 49 -35 98 -67 49 -32 138
-106 198 -164 108 -106 108 -106 108 -153 0 -36 -4 -48 -15 -48 -13 0 -14 -4
-5 -20 7 -14 7 -20 0 -20 -5 0 -10 4 -10 9 0 29 -213 235 -319 309 -82 58 -87
70 -7 20 72 -46 97 -68 219 -190 111 -112 146 -132 55 -31 -128 140 -262 244
-410 319 -29 15 -55 30 -58 34 -8 11 -210 11 -210 0 0 -6 8 -10 19 -10 26 0
110 -34 225 -92 98 -49 194 -118 306 -220 38 -34 156 -172 170 -198 23 -42 2
-31 -31 17 -46 67 -221 240 -299 294 -97 68 -244 143 -340 174 -47 15 -95 31
-108 36 -13 5 -153 9 -313 9 -283 0 -292 -1 -372 -26 -102 -32 -100 -31 -227
-94 -106 -53 -224 -135 -314 -219 -47 -45 -155 -173 -175 -208 -5 -10 -13 -15
-17 -11 -20 21 175 233 307 335 107 82 302 182 389 199 54 11 43 24 -20 24
-36 0 -73 -6 -92 -16 -17 -9 -41 -13 -54 -10 -47 12 -250 -115 -383 -239 -71
-67 -155 -164 -148 -172 4 -3 19 10 34 28 40 49 151 159 202 199 24 19 48 40
55 45 25 22 66 45 66 36 0 -5 -28 -28 -61 -51 -88 -60 -157 -125 -250 -235
-48 -56 -57 -65 -65 -65 -5 0 -3 5 4 12 16 16 15 28 -3 28 -27 0 -19 72 14
116 55 75 219 216 329 284 28 17 52 34 52 36 0 2 -277 4 -615 4 l-615 0 0
-2000z m2576 1950 c32 -16 52 -30 44 -29 -17 0 -131 59 -114 59 6 0 38 -13 70
-30z m-1216 3 c-8 -3 -17 -9 -20 -12 -12 -15 -80 -44 -86 -38 -4 4 0 7 9 7 8
0 17 3 19 8 5 12 62 42 78 41 13 -1 13 -1 0 -6z m548 -23 c17 -11 32 -27 32
-35 0 -8 7 -15 15 -15 8 0 15 6 15 13 0 6 16 23 35 36 32 21 38 22 67 11 42
-17 83 -55 98 -91 12 -28 10 -100 -4 -131 -6 -13 -1 -17 26 -20 37 -3 48 -30
29 -67 -12 -21 -119 -87 -128 -78 -3 3 11 20 32 38 32 29 35 34 21 47 -14 14
-20 11 -62 -32 -61 -61 -131 -109 -139 -96 -4 6 -23 21 -43 34 -21 13 -56 43
-79 66 -39 40 -63 46 -63 16 0 -8 17 -26 37 -42 49 -37 25 -43 -34 -8 -97 57
-114 124 -32 124 17 0 19 4 13 23 -30 93 9 186 91 215 40 14 36 14 73 -8z
m749 -26 c-3 -3 -12 -4 -19 -1 -8 3 -5 6 6 6 11 1 17 -2 13 -5z m-1802 -143
c3 -5 1 -12 -5 -16 -5 -3 -10 1 -10 9 0 18 6 21 15 7z m801 -208 c-5 -6 -34
-11 -62 -12 -11 -1 -35 -15 -52 -32 -18 -17 -32 -26 -32 -19 0 20 59 69 88 72
30 4 65 -2 58 -9z m716 -22 c18 -16 30 -32 27 -36 -4 -3 -19 5 -34 19 -17 16
-40 26 -59 26 -17 0 -38 5 -46 10 -11 7 -2 10 32 10 39 0 54 -6 80 -29z m-135
13 c-3 -3 -12 -4 -19 -1 -8 3 -5 6 6 6 11 1 17 -2 13 -5z m-437 -34 c0 -4 -23
-5 -50 -2 -36 3 -63 -1 -91 -13 -38 -18 -39 -19 -23 -42 21 -33 4 -53 -46 -53
-43 0 -71 23 -52 42 9 9 12 8 12 -5 0 -9 5 -17 10 -17 6 0 8 10 4 24 -9 36 42
68 120 75 67 7 116 3 116 -9z m526 -21 c13 -12 25 -33 27 -48 l3 -26 11 25
c11 24 12 24 12 3 1 -35 -38 -56 -77 -42 -32 11 -44 41 -22 54 36 22 -43 60
-107 51 -23 -3 -45 -1 -48 4 -8 13 40 16 114 8 45 -5 71 -14 87 -29z m-1613
-180 c68 -180 132 -265 422 -554 131 -131 165 -163 375 -355 189 -172 250
-239 280 -305 31 -67 44 -124 34 -149 -9 -25 -24 -19 -24 9 0 58 -98 204 -198
297 -85 78 -330 258 -352 258 -4 0 31 -38 79 -84 88 -87 100 -116 32 -78 -22
12 -102 51 -179 86 -77 35 -174 87 -217 117 -76 52 -205 182 -235 236 -9 16
-23 40 -33 54 -29 44 -87 230 -87 281 0 24 18 1 34 -44 24 -67 79 -158 149
-244 57 -72 127 -143 127 -131 0 5 -22 41 -49 81 -73 108 -155 269 -186 366
-33 104 -43 230 -24 315 l13 60 7 -76 c4 -41 19 -104 32 -140z m2541 167 c11
-56 8 -181 -4 -243 -15 -70 -71 -217 -112 -292 -32 -57 -108 -182 -118 -191
-3 -3 -11 -16 -19 -30 -13 -24 -13 -24 4 -10 103 84 275 335 275 402 0 9 5 20
10 23 15 9 12 -32 -10 -120 -24 -92 -55 -165 -101 -232 -111 -161 -211 -238
-460 -354 -95 -45 -183 -88 -196 -96 -18 -12 -23 -12 -23 -2 0 7 41 52 91 101
96 93 91 94 -36 9 -71 -48 -100 -70 -194 -146 -50 -40 -152 -151 -186 -201
-19 -28 -42 -77 -52 -108 -21 -65 -33 -72 -33 -18 0 86 47 177 142 273 51 53
75 75 278 258 242 219 514 502 588 611 81 121 132 259 132 358 0 58 14 63 24
8z m-1818 -2 c26 -7 54 -54 54 -91 0 -42 -35 -106 -120 -218 -82 -108 -152
-163 -218 -172 -36 -5 -41 -2 -75 39 -21 25 -37 50 -37 57 0 23 49 61 78 61
36 0 63 -26 38 -36 -35 -13 -2 -58 34 -46 69 22 105 132 44 132 -29 0 -32 26
-9 70 13 25 22 30 50 30 24 0 39 -6 47 -20 7 -11 18 -20 25 -20 17 0 16 -15
-3 -52 -9 -16 -11 -27 -5 -23 19 11 43 66 38 86 -3 11 -1 19 5 19 6 0 8 6 5
14 -3 8 1 17 9 20 20 8 17 40 -6 61 -20 18 -21 18 -36 -3 -20 -29 -34 -28 -34
4 0 16 13 39 34 60 35 35 45 38 82 28z m659 -28 c24 -15 56 -26 71 -26 39 0
127 -52 256 -150 17 -13 25 -28 23 -40 -2 -11 1 -20 7 -20 21 0 113 -107 126
-146 7 -22 26 -68 42 -104 37 -87 45 -120 26 -120 -8 0 -20 17 -26 38 -7 20
-20 53 -30 72 -10 19 -25 56 -35 82 -9 26 -33 64 -53 85 -21 21 -48 56 -61 77
-13 21 -47 54 -75 73 -28 19 -73 49 -100 68 -27 18 -67 37 -90 41 -23 3 -63
18 -91 33 -70 37 -167 37 -245 0 -30 -15 -73 -30 -95 -33 -47 -9 -110 -44
-144 -80 -14 -14 -30 -26 -37 -26 -13 0 -94 -78 -94 -90 0 -3 -20 -27 -44 -53
-24 -27 -49 -63 -56 -80 -6 -18 -22 -57 -35 -87 -13 -30 -29 -70 -35 -87 -7
-18 -19 -33 -26 -33 -22 0 -16 46 14 108 16 31 34 76 42 100 7 24 35 67 60 96
26 30 57 70 69 89 12 20 43 50 69 67 26 16 74 48 107 70 33 22 76 42 95 45 19
4 60 17 90 30 74 33 84 35 163 30 50 -3 80 -11 112 -29z m438 22 c28 -14 50
-45 58 -80 7 -29 -14 -41 -25 -15 -3 8 -9 6 -20 -7 -9 -11 -19 -17 -23 -13 -3
4 2 17 13 28 19 22 19 22 -4 10 -30 -16 -38 -39 -24 -62 7 -10 12 -25 12 -34
0 -9 6 -12 15 -9 12 5 14 0 9 -22 -3 -18 0 -36 10 -49 8 -11 16 -15 16 -8 0 6
-4 15 -10 18 -16 10 -12 45 4 39 8 -3 19 3 26 15 7 15 21 21 44 21 40 0 55
-16 63 -64 5 -32 3 -36 -15 -36 -31 0 -46 -34 -30 -67 17 -35 72 -73 98 -66
23 6 25 16 8 43 -15 24 1 40 41 40 29 0 71 -36 71 -60 0 -28 -69 -100 -96
-100 -66 0 -142 59 -234 180 -85 112 -110 156 -116 205 -6 40 -4 47 24 74 33
33 51 37 85 19z m-2110 -72 c33 -13 87 -68 87 -88 0 -5 -19 10 -43 35 -24 24
-56 46 -73 50 -84 16 -140 -40 -105 -106 17 -31 39 -41 57 -26 21 17 17 38
-11 51 -30 14 -31 20 -5 43 39 36 132 -8 160 -75 18 -44 5 -49 -15 -6 -10 20
-30 45 -45 56 -34 24 -90 27 -90 5 0 -8 6 -15 14 -15 17 0 28 -27 21 -51 -7
-22 -37 -33 -66 -24 -18 6 -20 4 -14 -14 8 -27 -2 -58 -22 -65 -22 -9 -53 3
-53 20 0 8 -7 14 -15 14 -18 0 -20 -42 -3 -73 28 -53 81 -82 168 -89 l35 -3 3
48 3 47 42 -1 42 -2 -35 -6 c-32 -5 -35 -9 -35 -41 0 -34 1 -35 45 -40 72 -8
29 -24 -77 -28 -85 -4 -93 -6 -93 -25 0 -18 5 -19 50 -14 68 8 63 -7 -8 -27
-73 -20 -91 -20 -114 1 -22 20 -23 31 -1 56 16 17 16 19 1 28 -96 54 -128 168
-63 229 19 18 32 22 64 17 l39 -5 -5 39 c-11 78 73 122 160 85z m3205 -19 c24
-25 31 -58 18 -88 -6 -14 -1 -16 37 -12 39 5 46 2 70 -27 32 -38 37 -105 10
-148 -21 -33 -63 -71 -80 -72 -17 0 -16 -15 2 -30 20 -17 19 -33 -5 -55 -20
-18 -55 -17 -127 6 -47 15 -41 25 14 24 36 0 48 4 51 16 3 14 -9 17 -77 18
-44 1 -93 6 -108 13 l-28 12 40 5 c38 6 40 8 40 41 0 31 -3 35 -27 35 -14 0
-30 3 -34 8 -4 4 11 7 34 7 39 0 42 -2 43 -27 3 -71 1 -68 49 -64 87 6 160 57
175 123 5 21 2 29 -15 38 -13 7 -20 8 -16 2 7 -12 -20 -42 -38 -42 -7 0 -21 9
-31 21 -16 16 -17 25 -8 48 10 28 10 28 -19 17 -26 -10 -32 -8 -48 11 -20 25
-16 63 6 63 8 0 14 7 14 15 0 10 -10 15 -33 15 -36 0 -81 -39 -110 -95 -21
-38 -22 -13 -2 29 17 35 88 86 120 86 12 0 30 -9 41 -21 19 -21 19 -21 -25
-48 -10 -6 -11 -13 -2 -30 7 -11 16 -21 22 -21 15 0 59 51 59 69 0 29 -30 60
-69 72 -32 9 -43 8 -72 -6 -33 -17 -79 -62 -79 -77 0 -5 -4 -8 -10 -8 -19 0
-10 19 30 58 21 22 50 43 62 45 46 10 101 -1 126 -26z m-2612 -1 c18 -14 18
-16 -16 -44 -30 -26 -33 -31 -21 -46 8 -9 20 -15 26 -12 7 2 18 -1 24 -7 6 -6
32 -19 58 -29 36 -13 43 -14 29 -3 -11 8 -26 15 -34 15 -11 0 -12 3 -4 13 6 7
9 23 5 35 -7 28 22 62 52 62 12 0 34 -9 49 -21 21 -17 24 -24 15 -35 -6 -8
-11 -36 -11 -64 0 -58 1 -57 -121 -39 -112 16 -125 24 -158 93 l-29 61 21 18
c26 21 88 22 115 3z m1995 4 c10 -6 19 -17 19 -24 0 -13 -44 -101 -61 -122
-11 -13 -92 -32 -180 -40 -63 -6 -66 -5 -64 15 1 11 4 24 8 27 4 4 3 12 -2 18
-5 6 -12 25 -15 43 -6 25 -3 34 16 47 47 33 103 5 96 -50 -4 -38 24 -55 51
-30 11 10 24 15 30 12 16 -10 40 22 34 45 -4 16 -8 17 -14 7 -6 -9 -9 -9 -9
-1 0 6 -9 15 -20 18 -26 8 -25 19 3 33 29 14 83 15 108 2z m-1624 -15 c9 -24
-1 -27 -15 -5 -8 13 -8 20 -2 20 6 0 13 -7 17 -15z m1021 -10 c2 -27 1 -28
-22 -19 -27 10 -18 38 14 43 3 1 7 -10 8 -24z m-428 -15 c0 -5 -7 -10 -15 -10
-8 0 -15 5 -15 10 0 6 7 10 15 10 8 0 15 -4 15 -10z m-110 -10 c0 -5 -5 -10
-11 -10 -5 0 -7 5 -4 10 3 6 8 10 11 10 2 0 4 -4 4 -10z m164 -29 c4 -5 -3 -7
-13 -4 -11 3 -22 11 -25 19 -4 11 -2 12 14 4 10 -5 21 -14 24 -19z m-114 9 c0
-5 -7 -10 -16 -10 -8 0 -12 5 -9 10 3 6 10 10 16 10 5 0 9 -4 9 -10z m-150 -9
c0 -5 -7 -11 -15 -15 -9 -3 -15 0 -15 9 0 8 7 15 15 15 8 0 15 -4 15 -9z m55
-11 c3 -6 -4 -10 -17 -10 -18 0 -20 2 -8 10 19 12 18 12 25 0z m300 0 c3 -5
-1 -10 -9 -10 -9 0 -16 5 -16 10 0 6 4 10 9 10 6 0 13 -4 16 -10z m65 0 c8 -5
11 -10 5 -10 -5 0 -17 5 -25 10 -8 5 -10 10 -5 10 6 0 17 -5 25 -10z m-320
-30 c0 -5 -2 -10 -4 -10 -3 0 -8 5 -11 10 -3 6 -1 10 4 10 6 0 11 -4 11 -10z
m119 -4 c19 -23 -14 -48 -58 -44 -38 3 -56 32 -29 49 21 14 74 10 87 -5z
m-265 -11 c-7 -16 -24 -21 -24 -6 0 8 7 13 27 20 1 1 0 -6 -3 -14z m506 -16
c0 -5 -9 -4 -19 3 -11 7 -17 16 -14 20 5 10 33 -10 33 -23z m-1770 -9 c8 -15
6 -17 -9 -13 -12 3 -20 -2 -24 -16 -6 -26 -33 -27 -46 -3 -11 21 -5 34 23 49
24 13 43 7 56 -17z m1220 26 c0 -2 -7 -7 -16 -10 -8 -3 -12 -2 -9 4 6 10 25
14 25 6z m368 -8 c-3 -7 -11 -13 -18 -13 -7 0 -15 6 -17 13 -3 7 4 12 17 12
13 0 20 -5 18 -12z m105 -2 c21 -16 22 -45 1 -53 -25 -9 -84 23 -84 47 0 16 6
20 33 20 17 0 40 -7 50 -14z m1385 -33 c2 -12 -4 -23 -13 -27 -21 -8 -35 1
-35 21 0 11 -7 14 -27 10 l-28 -5 29 24 c25 22 30 24 50 11 11 -8 22 -23 24
-34z m-1668 22 c0 -8 -9 -15 -20 -15 -22 0 -27 15 -7 23 21 9 27 7 27 -8z
m-57 -4 c14 -2 7 -27 -13 -49 -24 -26 -68 -29 -77 -6 -3 9 4 25 18 38 21 20
36 23 72 17z m-123 -36 c0 -8 -4 -15 -10 -15 -5 0 -7 7 -4 15 4 8 8 15 10 15
2 0 4 -7 4 -15z m200 5 c0 -5 -7 -10 -16 -10 -8 0 -12 5 -9 10 3 6 10 10 16
10 5 0 9 -4 9 -10z m173 -4 c4 -10 1 -13 -9 -9 -15 6 -19 23 -5 23 5 0 11 -7
14 -14z m186 -22 c14 9 71 -43 71 -64 0 -10 -7 -24 -16 -31 -14 -12 -20 -9
-45 21 -16 19 -29 42 -29 52 0 10 -6 18 -14 18 -19 0 -29 17 -20 32 5 8 13 4
25 -11 10 -12 23 -20 28 -17z m-614 16 c-3 -5 -11 -10 -16 -10 -6 0 -7 5 -4
10 3 6 11 10 16 10 6 0 7 -4 4 -10z m680 0 c3 -5 2 -10 -4 -10 -5 0 -13 5 -16
10 -3 6 -2 10 4 10 5 0 13 -4 16 -10z m-1258 -17 c6 -18 -44 -28 -62 -13 -8 7
-15 17 -15 22 0 14 73 5 77 -9z m518 -3 c-10 -11 -20 -18 -23 -16 -5 6 21 35
32 36 5 0 1 -9 -9 -20z m359 -1 c-3 -5 -10 -7 -15 -3 -5 3 -7 10 -3 15 3 5 10
7 15 3 5 -3 7 -10 3 -15z m81 11 c3 -5 -1 -10 -10 -10 -9 0 -13 5 -10 10 3 6
8 10 10 10 2 0 7 -4 10 -10z m915 2 c0 -14 -23 -32 -41 -32 -23 0 -44 26 -27
33 21 9 68 8 68 -1z m-2560 -39 c0 -8 -9 -17 -20 -20 -11 -3 -20 -12 -20 -19
0 -22 -20 -16 -29 8 -14 39 26 78 57 55 6 -5 12 -16 12 -24z m3235 13 c18 -27
11 -52 -17 -67 -18 -9 -18 -8 -8 10 8 17 8 21 -3 21 -8 0 -21 7 -28 16 -11 14
-10 18 6 30 26 19 32 18 50 -10z m-2384 4 c5 0 9 -7 9 -15 0 -22 -23 -18 -39
6 -11 19 -11 21 4 15 9 -3 21 -6 26 -6z m634 0 c3 -6 -4 -10 -17 -10 -18 0
-20 2 -8 10 19 12 18 12 25 0z m245 -5 c0 -9 -6 -12 -15 -9 -8 4 -12 10 -9 15
8 14 24 10 24 -6z m620 -6 c-12 -21 -31 -22 -37 -2 -4 10 11 18 40 22 4 0 3
-8 -3 -20z m-1000 -5 c0 -9 -9 -18 -19 -21 -11 -3 -24 -18 -30 -33 -5 -16 -21
-36 -36 -46 -24 -15 -28 -16 -42 -2 -13 14 -13 18 2 41 15 24 50 44 68 39 4
-1 16 7 27 18 24 24 30 25 30 4z m255 6 c3 -5 -1 -10 -10 -10 -9 0 -13 5 -10
10 3 6 8 10 10 10 2 0 7 -4 10 -10z m-75 -10 c0 -5 -7 -10 -16 -10 -8 0 -12 5
-9 10 3 6 10 10 16 10 5 0 9 -4 9 -10z m155 0 c3 -5 -1 -10 -9 -10 -9 0 -16 5
-16 10 0 6 4 10 9 10 6 0 13 -4 16 -10z m-435 -4 c0 -3 -4 -8 -10 -11 -5 -3
-10 -1 -10 4 0 6 5 11 10 11 6 0 10 -2 10 -4z m150 -16 c0 -5 -4 -10 -10 -10
-5 0 -10 5 -10 10 0 6 5 10 10 10 6 0 10 -4 10 -10z m170 0 c0 -5 -7 -10 -16
-10 -8 0 -12 5 -9 10 3 6 10 10 16 10 5 0 9 -4 9 -10z m80 -6 c0 -2 -7 -4 -15
-4 -8 0 -15 4 -15 10 0 5 7 7 15 4 8 -4 15 -8 15 -10z m108 -2 c6 -18 -15 -14
-22 4 -4 10 -1 14 6 12 6 -2 14 -10 16 -16z m42 8 c0 -5 -2 -10 -4 -10 -3 0
-8 5 -11 10 -3 6 -1 10 4 10 6 0 11 -4 11 -10z m225 -28 c-8 -8 -25 10 -25 26
0 13 2 13 14 -4 8 -10 13 -21 11 -22z m-845 13 c-7 -9 -15 -13 -17 -11 -7 7 7
26 19 26 6 0 6 -6 -2 -15z m270 11 c0 -3 -4 -8 -10 -11 -5 -3 -10 -1 -10 4 0
6 5 11 10 11 6 0 10 -2 10 -4z m45 -16 c-3 -5 -10 -10 -16 -10 -5 0 -9 5 -9
10 0 6 7 10 16 10 8 0 12 -4 9 -10z m220 0 c3 -5 2 -10 -4 -10 -5 0 -13 5 -16
10 -3 6 -2 10 4 10 5 0 13 -4 16 -10z m-190 -19 c-10 -17 -45 -33 -45 -21 0 5
6 10 14 10 8 0 17 7 20 16 4 9 9 14 12 11 3 -3 3 -10 -1 -16z m82 13 c-3 -3
-12 -4 -19 -1 -8 3 -5 6 6 6 11 1 17 -2 13 -5z m68 -4 c3 -5 2 -10 -4 -10 -5
0 -13 5 -16 10 -3 6 -2 10 4 10 5 0 13 -4 16 -10z m-545 -10 c0 -5 -8 -10 -17
-10 -15 0 -16 2 -3 10 19 12 20 12 20 0z m660 -21 c0 -5 -7 -6 -15 -3 -8 4
-15 13 -15 21 0 13 3 13 15 3 8 -7 15 -16 15 -21z m-415 11 c-3 -5 -11 -10
-16 -10 -6 0 -7 5 -4 10 3 6 11 10 16 10 6 0 7 -4 4 -10z m45 0 c0 -5 -5 -10
-11 -10 -5 0 -7 5 -4 10 3 6 8 10 11 10 2 0 4 -4 4 -10z m315 0 c3 -5 1 -10
-4 -10 -6 0 -11 5 -11 10 0 6 2 10 4 10 3 0 8 -4 11 -10z m95 0 c0 -5 -4 -10
-10 -10 -5 0 -10 5 -10 10 0 6 5 10 10 10 6 0 10 -4 10 -10z m60 -6 c0 -2 -7
-4 -15 -4 -8 0 -15 4 -15 10 0 5 7 7 15 4 8 -4 15 -8 15 -10z m-430 2 c0 -3
-4 -8 -10 -11 -5 -3 -10 -1 -10 4 0 6 5 11 10 11 6 0 10 -2 10 -4z m198 -20
c28 -3 57 -8 63 -12 6 -3 15 -1 19 5 5 9 11 7 21 -5 12 -16 12 -17 -4 -11 -13
5 -17 3 -15 -5 4 -12 8 -14 44 -17 8 0 13 -5 9 -10 -7 -13 34 -41 60 -41 17 0
17 -2 5 -10 -13 -9 -11 -14 13 -35 15 -13 27 -30 27 -36 0 -7 10 -23 23 -37
22 -23 22 -24 3 -38 -32 -23 -54 -17 -71 20 -38 80 -180 177 -258 176 -35 -1
-124 -35 -159 -61 -53 -40 -108 -103 -108 -125 0 -16 -56 -19 -80 -4 -13 8
-12 11 5 24 11 8 17 18 13 22 -5 4 -16 0 -25 -8 -27 -23 -43 -30 -43 -20 0 5
9 12 20 15 11 3 20 12 20 21 0 14 4 15 21 6 11 -7 24 -8 27 -4 4 4 1 9 -5 11
-7 3 -13 9 -13 14 0 6 5 7 11 3 16 -9 30 18 17 33 -7 9 -7 13 0 13 6 0 12 -5
14 -12 2 -6 10 -8 17 -4 9 6 9 11 0 22 -9 11 -7 14 10 14 24 0 27 10 9 28 -8
8 -8 12 -1 12 6 0 14 -8 17 -17 5 -13 9 -14 19 -3 9 10 9 13 0 17 -7 3 -13 10
-13 16 0 8 3 8 11 0 13 -13 69 2 69 18 0 5 11 9 24 9 14 0 28 5 31 10 3 6 21
10 40 10 19 0 37 5 41 11 5 8 8 8 13 0 4 -6 30 -13 59 -15z m52 20 c0 -3 -4
-8 -10 -11 -5 -3 -10 -1 -10 4 0 6 5 11 10 11 6 0 10 -2 10 -4z m258 -20 c3
-12 -1 -17 -10 -14 -7 3 -15 13 -16 22 -3 12 1 17 10 14 7 -3 15 -13 16 -22z
m72 -18 c0 -6 -7 -5 -15 2 -8 7 -15 17 -15 22 0 6 7 5 15 -2 8 -7 15 -17 15
-22z m-870 8 c0 -3 -4 -8 -10 -11 -5 -3 -10 -1 -10 4 0 6 5 11 10 11 6 0 10
-2 10 -4z m230 -6 c0 -5 -5 -10 -11 -10 -5 0 -7 5 -4 10 3 6 8 10 11 10 2 0 4
-4 4 -10z m35 0 c-3 -5 -12 -10 -18 -10 -7 0 -6 4 3 10 19 12 23 12 15 0z
m370 0 c3 -5 2 -10 -4 -10 -5 0 -13 5 -16 10 -3 6 -2 10 4 10 5 0 13 -4 16
-10z m-695 -25 c-7 -9 -15 -13 -18 -10 -3 2 1 11 8 20 7 9 15 13 18 10 3 -2
-1 -11 -8 -20z m200 15 c0 -5 -5 -10 -11 -10 -5 0 -7 5 -4 10 3 6 8 10 11 10
2 0 4 -4 4 -10z m588 -9 c3 -8 -1 -12 -9 -9 -7 2 -15 10 -17 17 -3 8 1 12 9 9
7 -2 15 -10 17 -17z m-678 -5 c0 -16 -18 -31 -27 -22 -8 8 5 36 17 36 5 0 10
-6 10 -14z m45 -5 c-3 -6 -11 -11 -17 -11 -6 0 -6 6 2 15 14 17 26 13 15 -4z
m672 4 c9 -24 -1 -27 -15 -5 -8 13 -8 20 -2 20 6 0 13 -7 17 -15z m89 -10 c11
-17 14 -36 10 -55 -3 -17 -1 -30 4 -30 5 0 14 -9 20 -20 9 -16 8 -20 -5 -20
-9 0 -19 8 -22 18 -4 9 -19 29 -35 44 -35 32 -40 88 -8 88 11 0 27 -11 36 -25z
m70 -2 c-7 -7 -26 7 -26 19 0 6 6 6 15 -2 9 -7 13 -15 11 -17z m964 -35 c0 -4
-7 -5 -15 -2 -8 4 -15 16 -15 28 1 21 1 21 15 2 8 -11 15 -23 15 -28z m-2920
12 c-11 -20 -30 -28 -30 -12 0 11 22 32 32 32 5 0 4 -9 -2 -20z m924 -4 c-6
-15 -24 -23 -24 -11 0 8 24 34 28 30 1 -1 0 -10 -4 -19z m796 20 c0 -3 -4 -8
-10 -11 -5 -3 -10 -1 -10 4 0 6 5 11 10 11 6 0 10 -2 10 -4z m-568 -28 c-7 -7
-12 -8 -12 -2 0 14 12 26 19 19 2 -3 -1 -11 -7 -17z m1045 16 c-3 -3 -12 -4
-19 -1 -8 3 -5 6 6 6 11 1 17 -2 13 -5z m-1135 -34 c-2 -14 -14 -36 -27 -49
-20 -21 -26 -22 -40 -11 -28 24 11 94 49 88 16 -2 20 -9 18 -28z m743 9 c11
-17 -1 -21 -15 -4 -8 9 -8 15 -2 15 6 0 14 -5 17 -11z m-1087 -17 c6 -18 -15
-14 -22 4 -4 10 -1 14 6 12 6 -2 14 -10 16 -16z m252 3 c-7 -9 -15 -13 -17
-11 -7 7 7 26 19 26 6 0 6 -6 -2 -15z m538 6 c9 -5 31 -14 48 -21 40 -14 134
-109 134 -134 0 -3 -10 -6 -22 -6 -14 0 -40 18 -66 44 -30 31 -58 48 -100 60
-57 17 -57 17 -114 -8 -33 -15 -68 -40 -85 -61 -28 -36 -73 -49 -73 -21 0 24
103 118 150 136 51 20 102 24 128 11z m446 -7 c4 -10 1 -14 -6 -12 -15 5 -23
28 -10 28 5 0 13 -7 16 -16z m239 -10 c-4 -10 -9 -12 -15 -6 -12 12 -1 35 12
27 5 -3 6 -13 3 -21z m-2303 1 c-7 -9 -15 -13 -19 -10 -3 3 1 10 9 15 21 14
24 12 10 -5z m3136 -12 c-7 -7 -26 7 -26 19 0 6 6 6 15 -2 9 -7 13 -15 11 -17z
m-2977 -61 c30 -75 30 -80 15 -110 -8 -18 -12 -36 -9 -42 10 -16 -5 -49 -27
-61 -18 -10 -20 -9 -15 5 9 23 -12 31 -28 10 -13 -18 -14 -17 -24 9 -6 16 -11
41 -11 56 0 15 -7 36 -15 47 -19 26 -20 74 0 74 8 0 15 8 15 19 0 23 37 71 54
71 8 0 28 -35 45 -78z m1711 68 c0 -5 -4 -10 -10 -10 -5 0 -10 5 -10 10 0 6 5
10 10 10 6 0 10 -4 10 -10z m1159 -16 c12 -15 21 -35 21 -45 0 -11 7 -19 15
-19 20 0 20 -39 0 -76 -8 -16 -15 -49 -15 -73 0 -37 -2 -42 -15 -31 -16 14
-35 6 -35 -16 0 -19 -16 -18 -39 5 -12 12 -17 28 -14 44 3 13 -2 38 -11 56
-12 22 -14 36 -7 48 14 25 38 84 46 111 8 29 29 28 54 -4z m-1992 -9 c-4 -8
-11 -15 -17 -15 -7 0 -7 6 0 21 13 23 26 19 17 -6z m213 15 c0 -5 -5 -10 -11
-10 -5 0 -7 5 -4 10 3 6 8 10 11 10 2 0 4 -4 4 -10z m860 -23 c0 -5 -4 -5 -10
-2 -5 3 -10 14 -10 23 0 15 2 15 10 2 5 -8 10 -19 10 -23z m-898 1 c-7 -7 -12
-8 -12 -2 0 14 12 26 19 19 2 -3 -1 -11 -7 -17z m698 12 c0 -5 -7 -7 -15 -4
-8 4 -15 8 -15 10 0 2 7 4 15 4 8 0 15 -4 15 -10z m-1945 -26 c30 -20 19 -32
-14 -15 -37 20 -78 13 -110 -19 -34 -34 -50 -93 -33 -120 16 -26 5 -53 -28
-72 -20 -11 -28 -22 -24 -32 3 -9 10 -16 15 -16 5 0 9 -4 9 -10 0 -40 -97 57
-106 106 -14 74 43 167 117 192 47 15 140 8 174 -14z m3362 11 c71 -30 113
-92 113 -169 0 -39 -5 -51 -42 -89 -24 -25 -53 -48 -66 -52 -22 -6 -22 -6 3
19 27 27 34 62 11 53 -8 -3 -17 1 -20 9 -3 9 -11 12 -17 8 -8 -4 -9 12 -4 57
5 54 3 69 -14 97 -30 47 -62 59 -118 44 -61 -17 -67 -7 -12 18 53 24 116 26
166 5z m-2142 -4 c7 -12 -41 -46 -77 -55 -29 -7 -34 -1 -19 23 8 12 12 12 25
2 12 -11 19 -8 38 12 28 30 26 29 33 18z m-192 -21 c-6 -24 -23 -37 -23 -18 0
12 18 38 26 38 1 0 0 -9 -3 -20z m977 0 c0 -5 -4 -10 -10 -10 -5 0 -10 5 -10
10 0 6 5 10 10 10 6 0 10 -4 10 -10z m-35 -26 c15 -14 25 -27 23 -29 -2 -3
-19 9 -37 25 -18 17 -28 30 -23 30 5 0 21 -11 37 -26z m123 14 c18 -18 14 -35
-10 -42 -30 -7 -42 7 -29 33 13 24 22 26 39 9z m-61 -20 c-3 -8 -6 -5 -6 6 -1
11 2 17 5 13 3 -3 4 -12 1 -19z m-947 8 c0 -3 -4 -8 -10 -11 -5 -3 -10 -1 -10
4 0 6 5 11 10 11 6 0 10 -2 10 -4z m1050 -6 c0 -5 -2 -10 -4 -10 -3 0 -8 5
-11 10 -3 6 -1 10 4 10 6 0 11 -4 11 -10z m-2145 -27 c10 -14 16 -15 28 -5 12
10 18 4 36 -38 28 -66 36 -106 21 -115 -6 -4 -19 0 -29 9 -10 9 -23 16 -29 16
-6 0 -15 6 -19 13 -4 8 -16 16 -25 20 -19 7 -25 52 -8 62 6 3 8 17 6 31 -5 28
2 31 19 7z m3237 -81 c-2 -7 -24 -24 -48 -38 -24 -14 -44 -30 -44 -35 0 -5 -7
-9 -15 -9 -22 0 -19 52 6 111 17 38 26 48 39 44 9 -3 23 2 31 11 11 14 14 11
24 -28 6 -23 9 -49 7 -56z m-3312 3 c7 -9 8 -15 2 -15 -5 0 -12 7 -16 15 -3 8
-4 15 -2 15 2 0 9 -7 16 -15z m1215 -10 c126 -20 135 -23 114 -36 -9 -5 -20
-25 -23 -45 -6 -30 -3 -39 19 -60 14 -13 27 -24 28 -24 1 0 27 -3 57 -6 80 -7
137 -24 156 -45 20 -23 12 -25 -19 -5 -21 14 -51 19 -90 17 -10 -1 -30 -13
-44 -27 l-25 -26 -67 65 c-64 62 -137 129 -193 177 -25 21 -40 49 -20 36 4 -2
52 -12 107 -21z m2147 3 c-7 -7 -12 -8 -12 -2 0 6 3 14 7 17 3 4 9 5 12 2 2
-3 -1 -11 -7 -17z m-3041 -19 c-17 -18 -21 -20 -21 -6 0 9 8 20 17 26 26 14
28 5 4 -20z m2724 11 c25 -27 12 -37 -14 -11 -12 12 -21 23 -21 26 0 11 18 4
35 -15z m-805 3 c0 -5 -15 -18 -32 -30 -17 -12 -80 -67 -139 -122 -104 -98
-107 -100 -121 -79 -19 28 -92 40 -130 21 -16 -8 -28 -9 -28 -4 0 19 72 45
116 42 71 -3 120 14 134 49 7 17 9 42 5 57 -4 16 -6 30 -6 33 0 3 40 12 88 21
107 20 113 21 113 12z m-680 -81 c0 -5 -7 -17 -15 -28 -14 -19 -14 -19 -15 2
0 11 3 24 7 27 9 10 23 9 23 -1z m257 -7 c8 -22 -6 -33 -17 -15 -13 20 -12 30
0 30 6 0 13 -7 17 -15z m-1380 -8 c4 -7 25 -26 45 -43 21 -16 38 -31 38 -34 0
-3 -24 -16 -52 -30 -29 -14 -79 -50 -112 -81 -156 -145 -192 -379 -91 -585 32
-66 47 -84 177 -206 35 -33 36 -48 1 -48 -14 0 -35 -7 -45 -17 -25 -23 -24
-75 3 -91 25 -16 43 -3 44 31 0 25 28 26 56 1 8 -8 23 -14 32 -14 9 0 43 -19
74 -43 78 -57 124 -81 217 -111 91 -30 177 -34 225 -10 62 31 76 107 25 141
-47 30 -101 -6 -83 -56 8 -20 14 -23 45 -18 45 8 42 -11 -7 -36 -41 -21 -94
-15 -126 16 -27 24 -28 35 -7 58 20 22 12 49 -14 49 -40 0 -50 -37 -27 -94 7
-16 5 -17 -12 -8 -26 14 -46 61 -41 98 3 28 5 29 81 36 43 4 106 14 139 23 34
8 62 14 63 13 37 -66 82 -98 135 -98 41 0 127 38 153 67 10 11 33 49 52 84 38
70 45 66 17 -8 -29 -74 -89 -161 -166 -240 -63 -63 -79 -74 -140 -92 -123 -38
-272 -22 -373 40 -22 14 -34 16 -38 8 -4 -6 -2 -16 4 -22 17 -17 13 -26 -9
-20 -29 8 -24 -7 15 -46 19 -19 33 -36 31 -38 -5 -6 -154 75 -196 105 -180
134 -270 261 -314 443 -9 36 -16 73 -16 82 0 9 -4 17 -9 17 -5 0 -13 9 -16 20
-9 27 -21 18 -35 -28 -20 -60 -27 -58 -40 15 -17 94 -14 295 6 379 31 134 122
289 217 368 45 38 62 43 74 23z m2562 -33 c102 -92 173 -214 206 -354 22 -93
27 -283 10 -374 -14 -74 -21 -88 -31 -60 -15 48 -27 74 -33 74 -17 -1 -40 -53
-54 -123 -9 -43 -35 -117 -57 -164 -67 -138 -216 -275 -398 -367 -45 -23 -52
-24 -44 -9 6 10 20 27 31 37 27 24 27 36 0 36 -18 0 -19 2 -9 15 22 27 1 29
-48 6 -167 -82 -361 -65 -479 42 -93 85 -184 229 -197 312 l-6 40 18 -40 c30
-68 49 -99 84 -132 57 -55 132 -76 191 -54 29 11 77 60 77 78 0 17 14 16 74
-2 26 -8 84 -18 127 -21 44 -4 82 -11 85 -16 12 -20 6 -71 -13 -95 -30 -41
-45 -41 -28 0 12 30 12 37 -1 55 -18 25 -52 29 -61 7 -3 -9 2 -24 12 -35 10
-11 14 -26 11 -37 -8 -24 -57 -53 -91 -53 -33 0 -81 24 -89 45 -5 13 0 15 29
9 30 -5 36 -3 46 20 10 22 9 29 -6 46 -26 29 -59 25 -89 -11 -30 -36 -31 -41
-11 -78 34 -66 141 -79 279 -32 89 29 201 91 249 136 15 14 32 23 37 20 5 -3
23 4 39 16 33 24 51 19 51 -16 0 -33 31 -42 52 -15 10 12 18 28 18 35 0 24
-41 65 -65 65 -39 0 -38 17 2 52 91 80 144 142 171 201 78 166 73 345 -13 493
-35 59 -119 138 -182 171 -29 15 -53 34 -53 41 0 6 3 12 8 12 4 0 23 16 42 35
19 18 40 34 46 34 7 1 35 -20 63 -45z m-2965 9 c7 -16 20 -70 27 -120 12 -89
12 -94 -7 -107 -13 -10 -23 -11 -31 -4 -9 7 -13 7 -13 0 0 -5 -9 -8 -20 -5
-11 3 -27 0 -35 -7 -13 -11 -18 -10 -30 6 -25 32 -28 62 -10 90 14 21 22 25
46 20 16 -3 31 -1 35 6 5 7 10 3 16 -12 5 -12 11 -20 14 -17 8 8 -28 87 -37
82 -4 -3 -3 11 1 30 4 20 4 38 -1 41 -5 3 -7 10 -4 15 11 18 35 9 49 -18z
m3328 -23 c-2 -25 -10 -58 -18 -74 -18 -38 -18 -55 1 -30 8 10 15 13 15 7 0
-8 10 -11 28 -7 30 6 62 -19 64 -52 2 -18 -28 -74 -39 -74 -2 0 -11 7 -20 15
-12 12 -18 13 -29 4 -25 -20 -25 -3 -1 25 16 18 29 25 40 20 11 -4 17 -1 17 9
0 33 -29 24 -65 -18 -32 -39 -39 -43 -56 -32 -17 10 -19 19 -13 62 4 28 8 57
9 65 9 83 30 132 53 128 13 -3 16 -13 14 -48z m-118 4 c4 -9 2 -13 -5 -8 -7 4
-9 0 -5 -14 4 -11 2 -23 -4 -27 -5 -3 -10 -15 -10 -26 0 -23 -15 -25 -24 -3
-10 26 -7 40 15 68 24 30 25 31 33 10z m-3091 -26 c16 -21 17 -29 7 -48 -14
-27 -30 -15 -34 26 -2 15 -8 30 -15 32 -6 2 -8 8 -5 13 9 14 25 6 47 -23z
m-243 -18 c0 -5 -4 -10 -10 -10 -5 0 -10 5 -10 10 0 6 5 10 10 10 6 0 10 -4
10 -10z m3555 0 c-3 -5 -10 -10 -16 -10 -5 0 -9 5 -9 10 0 6 7 10 16 10 8 0
12 -4 9 -10z m-3520 -30 c-3 -5 -10 -10 -16 -10 -5 0 -9 5 -9 10 0 6 7 10 16
10 8 0 12 -4 9 -10z m3485 0 c0 -5 -4 -10 -9 -10 -6 0 -13 5 -16 10 -3 6 1 10
9 10 9 0 16 -4 16 -10z m-1894 -35 c22 -17 12 -20 -18 -4 -16 9 -26 7 -49 -10
-33 -25 -39 -26 -39 -6 0 33 71 47 106 20z m358 5 c14 -5 26 -16 26 -25 0 -19
-9 -19 -34 0 -11 8 -30 15 -44 15 -13 0 -20 4 -17 10 8 13 36 13 69 0z m1366
-35 c0 -48 -16 -61 -26 -21 -5 21 9 66 21 66 3 0 5 -20 5 -45z m-3144 10 c7
-30 -2 -59 -16 -50 -13 8 -13 75 0 75 5 0 12 -11 16 -25z m636 -38 c40 -19 83
-37 96 -41 34 -11 15 -27 -23 -20 -37 7 -98 -22 -109 -51 -3 -8 -10 -15 -16
-15 -20 0 -10 20 27 55 33 31 35 35 15 35 -20 0 -92 -61 -92 -79 0 -5 -7 -12
-16 -15 -14 -5 -15 -4 -4 9 10 12 9 16 -4 21 -9 3 -13 10 -10 16 9 14 -34 47
-77 60 -29 8 -45 8 -68 -2 -35 -14 -41 -30 -11 -30 18 0 30 -19 13 -21 -16 -1
-38 -7 -55 -14 -33 -13 -21 35 18 71 76 72 189 79 316 21z m2068 31 c57 -13
124 -66 135 -107 7 -22 5 -23 -27 -15 -18 4 -51 11 -73 15 -22 3 -31 8 -20 9
11 2 25 4 30 5 6 2 21 3 35 4 l25 1 -25 20 c-15 11 -40 18 -64 18 -31 0 -46
-8 -78 -40 -27 -27 -38 -46 -35 -59 8 -29 -11 -23 -28 10 -17 34 -61 71 -83
71 -11 0 -6 -11 17 -34 18 -19 31 -40 29 -46 -2 -8 -17 1 -38 21 -29 29 -40
34 -81 34 -54 0 -72 10 -37 20 13 4 52 21 88 38 103 48 145 55 230 35z m-1196
-83 c9 -25 7 -39 -8 -61 -13 -17 -14 -15 -9 21 4 36 2 42 -21 54 -22 12 -28
12 -50 -2 -13 -9 -28 -26 -31 -38 -7 -20 -8 -21 -17 -5 -12 21 22 63 56 68 27
5 72 -16 80 -37z m206 30 c30 -15 46 -47 34 -66 -4 -7 -12 1 -20 19 -27 64
-113 45 -100 -23 6 -26 5 -28 -9 -15 -20 21 -6 71 26 87 31 16 34 16 69 -2z
m-1297 -52 c-7 -2 -21 -2 -30 0 -10 3 -4 5 12 5 17 0 24 -2 18 -5z m2257 -7
c0 -2 -8 -10 -17 -17 -16 -13 -17 -12 -4 4 13 16 21 21 21 13z m-2744 -20 c19
-15 19 -15 -3 -37 -33 -34 -83 0 -53 36 16 19 31 19 56 1z m3314 -1 c30 -36
-17 -68 -51 -36 -22 21 -22 21 -3 36 24 19 39 19 54 0z m-2256 -26 c73 -37
128 -78 182 -139 89 -98 154 -233 154 -319 0 -36 -3 -40 -32 -50 -94 -30 -234
-14 -332 37 -69 36 -152 125 -177 192 -13 33 -23 83 -24 125 -2 62 0 74 25
111 57 82 106 93 204 43z m1315 -9 c51 -52 65 -95 56 -174 -18 -172 -147 -296
-341 -330 -69 -12 -189 -6 -215 10 -16 10 -1 109 26 177 30 75 87 156 150 215
87 80 192 140 247 141 31 1 44 -6 77 -39z m-1839 -15 c28 -34 -3 -27 -38 9
l-37 38 31 -15 c17 -9 36 -23 44 -32z m2221 3 c-21 -19 -36 -27 -39 -19 -5 14
37 50 58 50 9 0 2 -12 -19 -31z m-1051 -63 c0 -9 9 -19 20 -22 13 -4 19 -11
16 -22 -2 -9 -7 -31 -11 -48 l-6 -33 -30 22 c-26 20 -27 23 -13 39 16 18 12
51 -12 98 -23 44 -15 58 11 19 14 -20 25 -44 25 -53z m-120 10 c-21 -51 -21
-57 -6 -74 15 -16 14 -19 -9 -39 -14 -12 -27 -22 -29 -22 -2 0 -6 15 -9 33 -3
17 -8 40 -12 50 -5 12 -2 17 9 17 9 0 23 16 31 37 9 20 20 43 27 50 21 26 20
3 -2 -52z m-1670 41 c0 -8 -5 -18 -11 -21 -6 -4 -8 -14 -5 -22 4 -11 2 -13 -9
-9 -18 7 -20 -5 -3 -22 9 -9 9 -15 -1 -24 -10 -11 -15 -9 -27 6 -20 28 -17 62
8 86 25 23 48 26 48 6z m3478 -2 c31 -22 29 -104 -3 -104 -16 0 -27 27 -15 35
6 4 10 11 10 17 0 7 -5 7 -14 -1 -11 -9 -14 -7 -13 11 0 13 -3 31 -7 41 -10
22 11 23 42 1z m-2646 -74 c-4 -55 0 -86 18 -143 20 -63 31 -80 89 -138 91
-91 197 -137 425 -186 22 -4 41 -14 44 -20 8 -27 -114 -46 -148 -22 -12 8 -12
10 5 8 37 -3 55 1 55 11 0 6 -6 10 -14 10 -28 0 -193 52 -251 79 -33 16 -79
47 -103 70 -43 43 -94 115 -98 139 -1 8 -10 30 -20 50 -13 26 -19 32 -22 20
-2 -9 2 -26 8 -37 6 -13 7 -21 1 -21 -5 0 -19 26 -31 58 -25 67 -23 141 5 172
34 37 43 25 37 -50z m1801 52 c29 -32 38 -70 27 -120 -12 -52 -39 -116 -47
-109 -2 3 0 15 7 26 12 23 5 45 -11 36 -5 -4 -9 -13 -9 -20 0 -8 -12 -40 -27
-71 -28 -59 -99 -138 -161 -179 -42 -27 -161 -68 -244 -85 -32 -6 -58 -16 -58
-21 0 -5 26 -10 58 -10 l57 -1 -54 -10 c-71 -13 -143 -3 -139 20 3 17 17 23
108 42 226 49 367 138 429 270 21 47 25 69 26 152 0 101 7 115 38 80z m-2180
-9 c-7 -2 -19 -2 -25 0 -7 3 -2 5 12 5 14 0 19 -2 13 -5z m2540 0 c-7 -2 -19
-2 -25 0 -7 3 -2 5 12 5 14 0 19 -2 13 -5z m-2630 -138 c-3 -9 -8 -14 -10 -11
-3 3 -2 9 2 15 9 16 15 13 8 -4z m2717 5 c0 -5 -2 -10 -4 -10 -3 0 -8 5 -11
10 -3 6 -1 10 4 10 6 0 11 -4 11 -10z m-2650 -15 c0 -2 -10 -10 -22 -16 -21
-11 -22 -11 -9 4 13 16 31 23 31 12z m2600 -17 c0 -6 -6 -5 -15 2 -8 7 -15 14
-15 16 0 2 7 1 15 -2 8 -4 15 -11 15 -16z m-1248 -35 c9 -10 20 -31 24 -48 l7
-30 -38 38 c-21 20 -46 37 -54 37 -19 0 -59 -26 -83 -55 -17 -20 -17 -20 -17
0 0 22 22 52 57 77 27 19 75 10 104 -19z m-1646 -248 c31 -93 70 -175 84 -175
5 0 9 24 8 53 -2 77 12 92 28 30 14 -56 73 -185 101 -222 36 -49 169 -178 216
-210 88 -60 309 -151 369 -151 18 0 15 6 -20 44 -22 24 -45 53 -52 65 -11 21
-10 22 9 12 11 -6 34 -11 52 -11 31 0 32 0 14 -20 -15 -16 -15 -22 -5 -35 15
-18 61 -20 78 -3 6 6 15 9 18 5 8 -7 -22 -57 -44 -73 -20 -14 -7 -50 20 -57
29 -8 74 20 92 57 l16 31 0 -33 c0 -45 -24 -89 -60 -107 -31 -16 -37 -29 -20
-40 6 -3 10 -10 10 -14 0 -10 -120 -1 -142 10 -25 14 -47 0 -63 -38 -11 -25
-19 -33 -30 -29 -9 3 -73 43 -143 89 -297 194 -522 416 -615 603 -51 101 -60
140 -60 235 0 80 3 93 37 165 l38 79 19 -90 c11 -49 31 -126 45 -170z m3256
202 c48 -95 59 -190 33 -292 -59 -233 -278 -474 -657 -725 -82 -55 -154 -100
-158 -100 -5 0 -13 15 -20 34 -12 36 -41 51 -69 36 -17 -9 -130 -17 -132 -9 0
2 3 13 7 23 5 13 3 21 -5 24 -38 13 -72 58 -78 102 l-5 45 20 -30 c29 -46 66
-67 97 -55 33 13 32 35 -5 77 -16 18 -30 38 -30 43 0 13 17 13 25 0 3 -5 21
-10 40 -10 26 0 35 5 40 21 5 13 2 25 -6 30 -18 11 -11 15 34 23 22 4 37 3 37
-3 0 -11 -49 -72 -67 -84 -7 -4 -13 -14 -13 -21 0 -17 60 -2 188 48 193 74
367 222 447 377 32 62 65 150 65 172 0 9 4 17 9 17 14 0 24 -57 16 -97 -11
-61 15 -33 55 58 39 88 90 270 90 321 0 37 14 29 42 -25z m-2614 -12 c33 -11
4 -20 -65 -20 -43 -1 -89 -5 -103 -9 l-25 -9 25 21 c35 28 108 35 168 17z
m2040 -11 c13 -9 21 -18 18 -21 -3 -3 -12 0 -21 7 -11 9 -39 11 -100 8 -85 -6
-103 4 -42 21 42 11 116 4 145 -15z m-1065 -16 c54 -55 85 -119 94 -195 3 -28
1 -43 -6 -43 -6 0 -11 13 -11 28 0 40 -27 127 -44 141 -7 6 -21 9 -30 5 -17
-6 -41 -77 -37 -108 2 -11 -2 -16 -8 -12 -6 4 -11 24 -11 45 0 46 -27 85 -52
76 -9 -4 -19 -14 -21 -23 -4 -15 -5 -15 -6 1 -1 21 75 107 96 107 8 0 24 -10
36 -22z m-1243 -73 c-20 -24 -3 -77 38 -121 39 -42 123 -104 141 -104 6 0 11
-4 11 -8 0 -4 12 -9 26 -10 14 -1 33 -7 42 -13 28 -17 -56 0 -113 24 -95 39
-175 125 -175 187 0 23 21 60 34 60 4 0 3 -7 -4 -15z m2380 5 c0 -5 -5 -10
-11 -10 -5 0 -7 5 -4 10 3 6 8 10 11 10 2 0 4 -4 4 -10z m51 -17 c40 -106
-120 -241 -306 -259 -29 -3 -18 3 39 20 92 28 176 83 225 147 28 36 32 49 28
81 -6 45 -1 49 14 11z m-1336 -83 c-4 -28 -9 -49 -12 -46 -3 2 -2 28 2 56 4
28 9 49 12 46 3 -2 2 -28 -2 -56z m55 -36 c0 -19 -16 -18 -24 2 -11 27 -7 37
9 24 8 -7 15 -19 15 -26z m139 10 c-17 -21 -31 -17 -17 5 7 11 16 17 20 14 5
-2 4 -11 -3 -19z m-584 -64 c3 -5 2 -10 -4 -10 -5 0 -13 5 -16 10 -3 6 -2 10
4 10 5 0 13 -4 16 -10z m-95 -73 c0 -13 -98 -37 -146 -37 -36 0 8 20 46 20 19
1 49 7 65 15 17 7 31 14 33 14 1 1 2 -5 2 -12z m290 6 c0 -8 -61 -63 -71 -63
-9 0 -19 37 -11 44 3 3 16 6 29 6 13 0 23 5 23 10 0 6 7 10 15 10 8 0 15 -3
15 -7z m650 -2 c0 -6 -4 -13 -10 -16 -5 -3 -10 1 -10 9 0 9 5 16 10 16 6 0 10
-4 10 -9z m-1466 -35 c37 -49 32 -56 -9 -16 -19 19 -35 38 -35 42 0 18 19 6
44 -26z m1804 18 c64 -7 105 -23 60 -24 -37 0 -131 21 -143 33 -7 7 -4 8 8 3
10 -3 44 -9 75 -12z m482 8 c0 -5 -13 -21 -30 -37 -35 -34 -39 -26 -8 15 21
29 38 39 38 22z m-2063 -8 c-3 -3 -12 -4 -19 -1 -8 3 -5 6 6 6 11 1 17 -2 13
-5z m1297 -2 c2 -4 -2 -16 -10 -27 -13 -18 -16 -18 -30 -3 -9 9 -13 21 -10 27
8 13 42 15 50 3z m-1184 -12 c0 -5 -7 -10 -16 -10 -8 0 -12 5 -9 10 3 6 10 10
16 10 5 0 9 -4 9 -10z m1220 -20 c0 -5 -4 -10 -10 -10 -5 0 -10 5 -10 10 0 6
5 10 10 10 6 0 10 -4 10 -10z m-1410 -35 c8 -17 25 -45 38 -62 28 -40 20 -42
-25 -7 -32 24 -63 71 -63 94 0 22 35 4 50 -25z m2000 14 c0 -22 -86 -117 -96
-107 -3 3 6 23 21 43 14 21 25 43 25 49 0 16 21 36 37 36 7 0 13 -10 13 -21z
m-1186 -61 c19 -93 136 -338 162 -338 10 0 94 131 94 147 0 3 11 31 24 62 14
31 32 82 42 114 9 31 19 57 23 57 3 0 14 -18 24 -39 11 -21 46 -69 80 -106
l61 -67 -35 -29 c-19 -16 -47 -39 -64 -52 l-30 -22 23 32 c27 39 28 107 1 134
-17 17 -19 16 -47 -9 -16 -15 -35 -46 -42 -69 -7 -24 -17 -43 -22 -43 -4 0 -8
-9 -8 -21 0 -11 -5 -17 -10 -14 -6 4 -13 -7 -16 -24 -4 -17 -10 -31 -14 -31
-4 0 -15 -18 -26 -40 -10 -22 -22 -40 -26 -40 -5 0 -8 -7 -8 -16 0 -26 -41
-12 -59 21 -9 17 -25 44 -37 60 -11 17 -35 62 -53 100 -64 133 -108 168 -130
104 -16 -46 -14 -67 10 -101 l22 -30 -29 16 c-16 9 -44 29 -62 45 l-34 29 47
48 c26 27 63 75 82 106 20 32 39 56 43 53 4 -3 10 -19 14 -37z m-1429 -236
c11 -59 11 -64 -11 -89 l-23 -27 -11 28 c-9 25 -40 194 -40 221 0 6 17 -8 37
-30 28 -31 39 -53 48 -103z m3265 107 c0 -26 -40 -222 -46 -228 -3 -3 -15 6
-28 20 -23 23 -23 27 -12 89 8 46 20 76 41 103 34 42 45 46 45 16z m-3220
-125 c0 -21 -4 -33 -10 -29 -5 3 -10 19 -10 36 0 16 5 29 10 29 6 0 10 -16 10
-36z m3110 -4 c0 -29 -4 -40 -15 -40 -12 0 -14 7 -9 28 14 66 24 71 24 12z
m-2076 -57 c12 -95 44 -221 82 -316 20 -49 33 -91 30 -94 -3 -3 -10 5 -17 18
-19 41 -65 71 -98 64 -22 -5 -28 -11 -24 -24 8 -32 -14 -32 -27 0 -11 27 -10
35 14 80 15 27 30 73 33 102 5 48 -6 148 -23 205 -5 16 -2 22 9 22 11 0 17
-16 21 -57z m216 -4 c41 -34 78 -67 82 -73 4 -7 3 -28 -1 -48 -10 -41 7 -91
34 -102 26 -10 60 -7 73 6 9 9 15 9 23 1 8 -8 4 -15 -12 -27 -50 -35 -131 -9
-155 50 -8 19 -20 34 -27 34 -25 0 -57 -31 -57 -56 0 -47 -23 -19 -41 51 -18
68 -26 205 -12 218 11 12 16 9 93 -54z m691 24 c3 -72 -2 -128 -17 -188 -18
-74 -28 -85 -42 -47 -13 38 -47 59 -68 41 -8 -6 -14 -17 -14 -25 0 -7 -16 -25
-35 -40 -29 -22 -42 -26 -76 -21 -45 6 -75 25 -60 40 5 5 17 5 29 -2 31 -16
67 -13 85 7 21 22 33 97 18 106 -6 4 -11 11 -11 16 0 12 163 150 178 150 7 0
13 -15 13 -37z m149 25 c-1 -7 -7 -40 -15 -73 -8 -33 -15 -79 -15 -103 0 -48
31 -146 55 -173 15 -16 15 -20 -1 -51 -15 -28 -19 -30 -22 -13 -4 21 -30 55
-42 55 -11 0 -62 -49 -87 -84 -29 -38 -29 -22 -2 41 52 118 99 298 99 375 0
27 4 38 15 38 8 0 15 -6 15 -12z m966 -15 c-10 -10 -19 5 -10 18 6 11 8 11 12
0 2 -7 1 -15 -2 -18z m-2976 -17 c0 -2 -15 -14 -34 -26 -44 -26 -61 -74 -47
-126 12 -43 47 -84 72 -84 17 0 34 -47 18 -52 -4 -2 -11 -15 -14 -30 -6 -25
-4 -27 29 -34 23 -4 42 -2 51 6 9 7 15 8 15 2 0 -24 -133 -41 -172 -21 -129
66 -130 253 -1 338 40 27 83 40 83 27z m3012 -42 c21 -13 50 -43 65 -66 24
-36 28 -52 28 -114 0 -66 -3 -76 -31 -111 -44 -54 -72 -65 -144 -57 -33 3 -68
13 -77 20 -16 12 -14 12 12 3 22 -8 38 -8 59 0 27 11 28 13 11 25 -13 9 -15
15 -6 20 9 6 9 11 -1 23 -10 12 -5 20 29 49 88 73 78 189 -18 219 -10 4 -19
11 -19 16 0 14 51 0 92 -27z m-2929 -30 c35 -18 77 -53 77 -65 0 -4 -23 -7
-52 -6 -47 2 -53 5 -70 36 -16 27 -17 36 -6 42 17 11 14 12 51 -7z m2808 -13
l22 -18 -22 -31 c-21 -30 -25 -31 -78 -27 -30 2 -57 6 -60 9 -9 9 87 84 108
86 4 0 17 -8 30 -19z m39 9 c0 -5 -4 -10 -10 -10 -5 0 -10 5 -10 10 0 6 5 10
10 10 6 0 10 -4 10 -10z m-2962 -86 c-3 -14 -5 -12 -10 9 -3 19 -2 25 4 19 6
-6 8 -18 6 -28z m2998 -32 c-19 -20 -20 -7 -4 39 l13 34 3 -29 c2 -17 -3 -35
-12 -44z m-2936 23 c7 -9 10 -18 7 -21 -10 -11 -37 5 -37 21 0 19 14 19 30 0z
m2900 -12 c0 -5 -5 -15 -10 -23 -7 -11 -12 -12 -21 -3 -6 6 -8 16 -5 22 8 12
36 15 36 4z m-2675 -24 c-4 -5 1 -9 10 -9 16 0 111 -51 218 -116 26 -16 47
-35 47 -41 0 -22 -20 -15 -62 21 -21 19 -81 55 -131 81 -51 26 -95 52 -99 58
-9 14 0 29 13 21 5 -3 7 -10 4 -15z m2455 -5 c0 -11 -31 -32 -105 -70 -79 -42
-145 -85 -164 -108 -15 -18 -31 -12 -31 11 0 21 17 34 128 94 50 28 92 55 92
59 0 8 25 16 63 19 9 0 17 -2 17 -5z m-2645 -14 c-3 -5 -12 -10 -18 -10 -7 0
-6 4 3 10 19 12 23 12 15 0z m2815 -20 c0 -5 -2 -10 -4 -10 -3 0 -8 5 -11 10
-3 6 -1 10 4 10 6 0 11 -4 11 -10z m-2682 -16 c21 -6 22 -12 22 -89 0 -135 54
-266 145 -354 25 -24 43 -47 39 -50 -3 -3 -12 3 -20 13 -7 11 -17 17 -20 13
-4 -4 12 -23 35 -43 55 -49 40 -65 -25 -29 -114 64 -215 153 -305 268 -38 49
-69 92 -69 96 0 10 46 31 68 31 11 0 30 -20 47 -50 16 -27 35 -52 42 -55 8 -3
3 13 -12 38 -39 63 -49 86 -41 95 9 9 30 -18 62 -80 13 -27 29 -48 35 -48 7 0
8 7 4 18 -25 56 -45 127 -51 176 -7 60 -5 63 44 50z m62 -64 c0 -27 9 -78 19
-112 11 -35 22 -75 25 -89 3 -15 17 -31 32 -38 17 -8 24 -17 20 -27 -3 -9 -6
-24 -6 -35 0 -10 -4 -19 -9 -19 -13 0 -72 117 -87 174 -16 60 -19 196 -4 196
6 0 10 -22 10 -50z m2519 -2 c-9 -56 -35 -134 -52 -156 -12 -15 -3 -27 13 -17
5 3 21 28 35 55 27 52 40 66 50 50 3 -5 -10 -34 -30 -65 -38 -60 -43 -74 -20
-55 8 7 15 16 15 21 0 5 8 17 18 27 9 10 22 26 27 35 8 15 16 16 48 7 20 -6
37 -17 37 -23 0 -18 -119 -163 -175 -215 -70 -65 -214 -162 -239 -162 -16 0
-3 31 19 48 24 19 36 40 15 27 -23 -14 -7 14 26 46 87 83 143 214 147 342 2
77 7 87 48 87 26 0 26 0 18 -52z m-2412 8 c2 -2 -6 -20 -17 -41 -11 -22 -20
-47 -20 -57 0 -32 -19 -19 -29 20 -12 41 -14 95 -5 105 5 5 56 -15 71 -27z
m1040 -3 c-8 -15 -45 -59 -81 -98 -36 -38 -68 -82 -71 -97 -4 -16 -10 -28 -14
-28 -4 0 -19 26 -33 58 l-25 57 49 6 c53 8 98 37 150 98 37 45 46 46 25 4z
m-599 -2 c22 -15 35 -37 47 -77 18 -62 16 -78 -5 -39 -14 26 -25 31 -35 15 -3
-5 -12 -7 -20 -3 -11 4 -13 1 -9 -11 10 -25 -19 -20 -46 8 -29 32 -70 41 -115
26 -43 -14 -65 -44 -65 -88 0 -20 -4 -31 -10 -27 -15 9 -12 70 4 108 18 41 61
85 100 103 42 19 116 12 154 -15z m759 -18 c41 -50 100 -82 151 -83 17 0 32
-3 32 -6 0 -9 -51 -114 -56 -114 -2 0 -10 15 -18 33 -8 17 -35 55 -60 82 -55
60 -109 135 -96 135 5 0 26 -21 47 -47z m710 32 c48 -20 71 -41 94 -88 21 -41
28 -102 13 -117 -7 -7 -10 3 -11 26 -1 44 -33 80 -78 88 -36 7 -84 -7 -101
-29 -9 -12 -17 -13 -43 -4 -17 6 -31 15 -31 20 0 19 -17 7 -33 -23 l-18 -33 6
44 c8 60 32 98 74 115 47 19 83 20 128 1z m414 -52 c0 -32 -8 -85 -16 -117
-16 -60 -70 -166 -84 -166 -18 0 -7 50 15 71 13 12 24 34 24 48 0 14 9 49 20
77 10 29 20 71 21 95 4 85 22 78 20 -8z m-50 12 c-4 -46 -19 -90 -28 -81 -8 8
-33 77 -33 92 0 12 40 34 55 30 5 -1 8 -20 6 -41z m-1201 -44 c-26 -51 -79
-113 -91 -105 -19 11 -7 40 43 106 40 52 54 65 60 53 6 -9 1 -29 -12 -54z
m112 -14 c37 -48 49 -87 27 -87 -30 0 -106 126 -95 156 7 18 8 18 19 -1 6 -11
28 -42 49 -68z m-1133 54 c18 -11 5 -31 -20 -31 -21 0 -22 1 -13 24 7 18 13
19 33 7z m2139 -34 c2 -11 -3 -17 -17 -17 -23 0 -35 15 -26 31 10 15 39 6 43
-14z m-2062 -27 c14 -14 5 -67 -12 -74 -7 -3 -16 -1 -20 5 -3 5 -23 -6 -45
-26 -45 -41 -50 -42 -74 -15 -17 19 -17 21 0 40 10 11 30 20 44 20 23 1 24 2
9 11 -26 15 -22 25 15 37 43 13 71 14 83 2z m450 -37 c8 -3 11 -9 8 -15 -3 -5
6 -20 21 -34 37 -34 25 -41 -24 -13 -36 20 -41 27 -41 59 0 41 13 63 18 30 2
-12 10 -24 18 -27z m1061 -45 c-32 -25 -66 -42 -72 -36 -4 3 7 20 24 38 16 19
36 47 43 64 l13 31 6 -40 c6 -34 4 -43 -14 -57z m516 58 c38 -13 37 -24 -3
-39 -8 -3 1 -6 21 -6 43 -1 68 -24 52 -49 -19 -31 -55 -27 -85 9 -23 27 -30
30 -42 20 -8 -7 -20 -10 -26 -6 -11 7 -14 68 -3 78 10 11 44 8 86 -7z m-2023
-76 c0 -6 -12 -15 -27 -21 -16 -6 -36 -18 -46 -26 -9 -9 -20 -13 -25 -9 -10
11 58 66 80 66 10 0 18 -5 18 -10z m179 -7 c14 -12 23 -32 25 -61 2 -23 6 -46
10 -49 3 -3 1 -12 -5 -19 -8 -10 -17 -7 -41 14 -60 53 -78 75 -67 88 5 6 7 19
3 28 -9 23 47 22 75 -1z m1649 -8 c14 -31 -1 -60 -53 -99 -28 -22 -55 -33 -55
-23 1 29 22 123 31 133 20 24 64 17 77 -11z m147 -5 c3 -5 -3 -10 -14 -10 -11
0 -23 5 -26 10 -3 6 3 10 14 10 11 0 23 -4 26 -10z m-1655 -15 c7 -9 20 -13
29 -11 11 4 30 -14 60 -56 24 -34 46 -70 49 -80 8 -30 -31 -21 -64 15 -31 32
-104 133 -104 142 0 10 18 4 30 -10z m1690 -5 c0 -5 -2 -10 -4 -10 -3 0 -8 5
-11 10 -3 6 -1 10 4 10 6 0 11 -4 11 -10z m-1082 -55 c14 -68 -16 -165 -51
-165 -12 0 -87 118 -87 137 0 6 11 8 25 5 30 -5 71 19 80 48 10 33 23 23 33
-25z m112 21 c0 -27 38 -49 75 -43 19 3 35 4 35 2 0 -2 -13 -26 -28 -52 -16
-26 -31 -56 -35 -66 -4 -9 -14 -20 -22 -23 -37 -15 -74 96 -55 165 10 38 30
49 30 17z m554 12 c-5 -7 -9 -20 -9 -29 -2 -24 -77 -108 -97 -109 -10 0 -18 2
-18 5 0 7 93 129 105 137 16 12 27 9 19 -4z m-1583 -8 c13 -7 19 -7 19 0 0 19
36 10 60 -15 12 -13 40 -36 62 -51 35 -25 37 -28 23 -44 -14 -16 -13 -19 9
-34 14 -9 36 -16 48 -17 15 0 18 -3 8 -6 -14 -6 -39 -32 -40 -43 0 -3 27 -3
60 -2 39 3 60 0 60 -7 0 -6 -11 -11 -24 -11 -13 0 -48 -11 -78 -25 -75 -35
-164 -35 -202 0 -42 39 -35 61 27 75 28 7 59 16 67 21 30 16 -20 22 -75 10
-59 -13 -101 -2 -91 25 3 8 2 14 -2 14 -16 0 -52 41 -52 58 0 10 19 26 48 39
56 27 49 25 73 13z m458 -19 c19 -15 32 -34 29 -42 -3 -9 -15 -3 -41 22 -56
55 -47 69 12 20z m1051 19 c0 -5 -13 -24 -29 -42 -22 -25 -33 -30 -41 -22 -14
14 7 54 27 54 7 0 13 5 13 10 0 6 7 10 15 10 8 0 15 -4 15 -10z m486 -20 c24
-12 44 -25 44 -29 0 -16 -50 -61 -66 -61 -16 0 -16 -1 2 -14 18 -14 18 -15
-11 -26 -22 -8 -40 -8 -72 1 -45 12 -110 4 -83 -10 8 -5 39 -14 68 -21 28 -6
54 -16 57 -20 9 -14 -16 -57 -40 -70 -36 -19 -141 -8 -199 20 -31 14 -65 23
-90 22 -37 -1 -39 0 -16 9 14 6 51 9 83 6 57 -5 58 -5 41 14 -14 16 -15 21 -3
35 7 9 24 20 37 25 24 9 24 10 7 29 -10 11 -16 22 -14 23 2 2 20 14 39 27 19
14 43 34 52 46 15 18 26 21 69 18 28 -1 70 -13 95 -24z m-1412 -56 c4 -9 -4
-18 -20 -24 -34 -13 -34 -13 -34 14 0 36 41 44 54 10z m806 -9 c0 -21 -15 -26
-45 -15 -27 10 -27 11 -10 30 13 15 22 17 36 9 11 -5 19 -16 19 -24z m241 -18
c-11 -18 -29 -41 -39 -50 -17 -15 -21 -16 -31 -3 -18 21 16 68 42 60 16 -5 18
-2 12 15 -5 16 -3 20 9 15 10 -4 16 -1 17 7 0 11 2 11 6 2 2 -7 -5 -28 -16
-46z m-1303 3 c41 -39 47 -60 17 -60 -17 0 -51 35 -71 73 -22 41 2 35 54 -13z
m298 -7 c-10 -10 -19 5 -10 18 6 11 8 11 12 0 2 -7 1 -15 -2 -18z m674 7 c0
-5 -4 -10 -10 -10 -5 0 -10 5 -10 10 0 6 5 10 10 10 6 0 10 -4 10 -10z m-770
-32 c0 -13 -23 -5 -28 10 -2 7 2 10 12 6 9 -3 16 -11 16 -16z m180 7 c0 -16
-17 -19 -44 -9 -26 10 -18 24 14 24 20 0 30 -5 30 -15z m548 3 c-7 -20 -58
-23 -58 -4 0 11 10 16 31 16 20 0 29 -4 27 -12z m151 -9 c-16 -10 -23 -4 -14
10 3 6 11 8 17 5 6 -4 5 -9 -3 -15z m-723 -78 c14 -21 31 -62 39 -91 8 -29 26
-66 41 -81 15 -16 24 -29 18 -29 -16 0 -84 70 -84 86 0 9 -6 14 -12 11 -7 -2
-12 -14 -11 -26 2 -11 -2 -21 -7 -21 -6 0 -10 5 -10 10 0 6 -7 10 -15 10 -8 0
-15 -5 -15 -10 0 -6 -11 -3 -25 6 -26 17 -34 8 -12 -15 10 -11 7 -12 -13 -6
-14 4 -29 11 -34 16 -6 5 -24 9 -42 9 -40 0 -64 9 -64 23 0 6 -8 19 -17 29
-10 11 -23 39 -29 64 -11 43 -10 45 14 51 14 3 32 1 41 -4 11 -7 19 -6 27 5
15 21 51 -4 65 -45 6 -18 24 -42 41 -54 28 -20 29 -20 20 -3 -49 95 -52 116
-22 124 35 9 75 -13 106 -59z m669 49 c3 -5 -7 -36 -23 -68 -28 -60 -28 -60
-4 -44 13 8 32 32 43 53 20 40 53 66 63 50 3 -5 23 -7 45 -4 41 6 62 -10 42
-30 -6 -6 -11 -24 -11 -39 0 -16 -9 -36 -19 -45 -11 -9 -17 -22 -14 -29 3 -9
-8 -15 -34 -19 -21 -3 -52 -10 -69 -15 -36 -12 -64 -4 -64 17 0 12 -7 11 -36
-6 -19 -12 -36 -21 -37 -21 -6 0 0 57 6 68 5 6 6 12 3 12 -3 0 -18 -19 -32
-42 -25 -41 -71 -87 -87 -88 -4 0 6 14 22 30 16 17 32 47 36 67 9 49 41 110
72 139 26 25 86 33 98 14z m-511 -117 c3 -8 0 -21 -8 -29 -8 -7 -17 -27 -21
-44 -4 -16 -12 -30 -18 -30 -35 0 -59 116 -30 145 12 13 18 12 43 -7 16 -11
31 -27 34 -35z m104 45 c10 -10 15 -10 21 1 9 14 51 7 51 -10 0 -5 7 -9 15 -9
8 0 15 -8 15 -18 0 -23 -77 -132 -93 -132 -13 1 -78 81 -90 113 -6 16 -1 26
20 43 32 27 44 29 61 12z m210 -61 c-1 -53 -18 -87 -45 -87 -8 0 -13 11 -13
29 0 19 -8 35 -22 45 l-22 16 33 34 c27 28 38 33 52 25 14 -7 18 -21 17 -62z
m-822 32 c3 -6 -6 -23 -21 -39 -20 -21 -25 -34 -20 -50 7 -22 6 -23 -46 -16
-30 4 -58 11 -62 15 -13 13 11 61 32 61 10 0 21 9 24 20 4 16 14 20 45 20 23
0 44 -5 48 -11z m1331 -5 c3 -8 16 -20 29 -24 20 -8 43 -54 33 -65 -3 -2 -29
-7 -58 -11 -51 -7 -54 -6 -49 14 4 14 -3 30 -24 51 -16 17 -27 35 -23 41 10
17 85 12 92 -6z m-756 -126 l47 -51 33 38 c19 21 38 44 42 51 12 21 37 17 37
-5 0 -25 -26 -51 -51 -51 -10 0 -19 -7 -19 -15 0 -9 9 -15 21 -15 18 0 19 -3
9 -14 -23 -29 -73 -38 -113 -21 -46 19 -56 35 -22 35 36 0 27 22 -13 34 -31 9
-49 36 -37 56 10 16 16 13 66 -42z m-330 1 c6 -10 3 -15 -11 -17 -11 -2 -20
-7 -20 -12 0 -5 -16 -14 -34 -20 -29 -9 -39 -8 -60 6 -15 9 -26 21 -26 26 0
12 21 33 40 40 24 8 102 -8 111 -23z m881 2 c-2 -9 3 -11 14 -7 15 6 15 4 2
-16 -27 -40 -43 -44 -88 -20 -23 12 -48 22 -56 22 -12 0 -12 4 -4 20 10 18 19
21 73 18 46 -2 61 -6 59 -17z m-892 -132 c0 -5 -4 -9 -10 -9 -5 0 -10 7 -10
16 0 8 5 12 10 9 6 -3 10 -10 10 -16z m790 1 c0 -5 -4 -10 -10 -10 -5 0 -10 5
-10 10 0 6 5 10 10 10 6 0 10 -4 10 -10z m-580 -10 c0 -5 -7 -10 -16 -10 -8 0
-12 5 -9 10 3 6 10 10 16 10 5 0 9 -4 9 -10z"/>
<path d="M1821 3913 c-70 -35 -93 -131 -49 -212 27 -51 33 -47 14 10 -20 55
-20 78 -1 122 20 49 60 69 93 48 11 -7 11 -12 1 -28 -25 -41 12 -71 45 -37 30
29 15 78 -31 102 -28 15 -31 15 -72 -5z"/>
<path d="M1999 3899 c-34 -36 -37 -59 -10 -83 32 -29 72 9 41 40 -15 15 13 36
41 32 53 -8 82 -100 55 -178 -20 -57 -13 -63 13 -11 43 84 17 187 -54 217 -47
19 -53 18 -86 -17z"/>
<path d="M1816 3849 c-46 -55 -31 -144 40 -228 l27 -32 39 38 40 38 34 -39 34
-39 20 24 c51 60 82 145 70 190 -10 32 -46 79 -62 79 -5 0 -6 -15 -3 -33 12
-65 -62 -85 -89 -25 -4 9 -10 6 -22 -9 -34 -46 -106 -16 -89 37 10 32 -12 32
-39 -1z m114 -114 c21 -25 4 -48 -30 -41 -23 4 -30 2 -30 -10 0 -8 -4 -12 -10
-9 -5 3 -10 17 -10 30 0 39 55 60 80 30z m111 5 c13 -7 19 -21 19 -43 -1 -32
-1 -32 -14 -8 -8 15 -16 20 -20 12 -10 -16 -46 -14 -52 4 -7 18 13 45 33 45 8
0 23 -5 34 -10z"/>
<path d="M1922 3608 l-21 -23 24 -27 c29 -34 35 -34 65 -3 l23 25 -23 25 c-29
31 -41 31 -68 3z"/>
<path d="M1260 3249 c-15 -28 -5 -35 25 -19 19 10 22 16 14 27 -16 18 -27 16
-39 -8z"/>
<path d="M1280 3193 c0 -22 2 -25 10 -13 13 20 13 40 0 40 -5 0 -10 -12 -10
-27z"/>
<path d="M1085 3100 c-3 -5 1 -10 9 -10 10 0 13 -6 9 -15 -14 -37 72 -60 111
-30 11 8 15 15 9 15 -7 0 -15 -4 -18 -10 -18 -29 -85 5 -85 43 0 18 -25 23
-35 7z"/>
<path d="M2623 3263 c-22 -8 -14 -26 10 -20 l22 6 -21 -17 c-11 -10 -19 -23
-16 -30 5 -17 22 -15 22 3 0 8 7 15 15 15 18 0 18 5 5 31 -11 19 -16 21 -37
12z"/>
<path d="M2799 3108 c0 -2 -2 -12 -4 -23 -7 -38 -48 -55 -86 -35 -11 6 -19 7
-19 1 0 -19 76 -28 110 -13 16 7 24 72 9 72 -5 0 -9 -1 -10 -2z"/>
<path d="M192 3260 c-13 -6 -30 -26 -38 -45 -24 -59 1 -119 68 -161 41 -26 76
-33 43 -9 -11 8 -30 23 -43 32 -50 36 -67 107 -33 137 21 19 41 14 41 -10 0
-20 27 -29 45 -14 21 17 19 27 -11 55 -29 27 -37 29 -72 15z"/>
<path d="M3662 3258 c-23 -12 -39 -49 -27 -67 11 -19 32 -12 50 15 16 25 17
25 36 8 45 -41 7 -125 -76 -168 -29 -15 -29 -16 -6 -16 31 0 83 40 111 85 28
45 20 105 -17 135 -29 22 -38 23 -71 8z"/>
<path d="M945 3320 c-3 -5 -1 -10 4 -10 6 0 11 5 11 10 0 6 -2 10 -4 10 -3 0
-8 -4 -11 -10z"/>
<path d="M1125 3316 c-17 -12 -16 -14 6 -34 25 -24 39 -28 39 -12 0 6 -7 10
-16 10 -8 0 -12 5 -9 10 4 6 11 8 16 5 5 -4 9 0 9 8 0 21 -25 28 -45 13z"/>
<path d="M2755 3322 c-12 -8 -14 -62 -2 -62 4 0 8 12 8 28 1 16 3 20 6 10 2
-10 8 -18 13 -18 16 0 22 21 10 35 -14 17 -20 18 -35 7z"/>
<path d="M2815 3240 c3 -5 8 -10 11 -10 2 0 4 5 4 10 0 6 -5 10 -11 10 -5 0
-7 -4 -4 -10z"/>
<path d="M217 2413 c-13 -12 -7 -25 9 -19 10 4 22 -1 29 -11 8 -10 17 -14 22
-9 4 5 2 11 -4 13 -7 3 -13 11 -13 19 0 14 -31 20 -43 7z"/>
<path d="M225 2370 c3 -5 8 -10 11 -10 2 0 4 5 4 10 0 6 -5 10 -11 10 -5 0 -7
-4 -4 -10z"/>
<path d="M3670 2370 c0 -5 5 -10 10 -10 6 0 10 5 10 10 0 6 -4 10 -10 10 -5 0
-10 -4 -10 -10z"/>
<path d="M1380 3990 c0 -5 6 -10 14 -10 8 0 18 5 21 10 3 6 -3 10 -14 10 -12
0 -21 -4 -21 -10z"/>
</g>
</svg>
